<?xml version="1.0" standalone="no"?>
<!DOCTYPE svg PUBLIC "-//W3C//DTD SVG 20010904//EN"
 "http://www.w3.org/TR/2001/REC-SVG-20010904/DTD/svg10.dtd">
<svg version="1.0" xmlns="http://www.w3.org/2000/svg"
 width="512.000000pt" height="512.000000pt" viewBox="0 0 512.000000 512.000000"
 preserveAspectRatio="xMidYMid meet">
<metadata>
Created by potrace 1.14, written by Peter Selinger 2001-2017
</metadata>
<g transform="translate(0.000000,512.000000) scale(0.100000,-0.100000)"
fill="#000000" stroke="none">
<path d="M3041 5105 c-42 -19 -78 -60 -87 -100 -4 -16 -27 -56 -53 -87 -41
-51 -50 -58 -82 -58 -87 0 -177 -48 -225 -119 -26 -40 -88 -202 -104 -275 -54
-240 -5 -443 140 -586 98 -96 222 -151 343 -151 58 0 191 32 201 49 2 4 65 7
139 5 74 -1 151 3 172 8 33 9 52 6 152 -26 110 -36 118 -40 184 -105 41 -40
69 -75 69 -87 0 -20 -2 -20 -72 7 -149 58 -273 56 -364 -6 -22 -15 -97 -75
-169 -133 -71 -59 -135 -110 -141 -113 -6 -4 -21 -1 -35 5 -69 36 -293 109
-377 123 -15 3 -38 7 -52 10 -109 20 -396 27 -508 11 -389 -53 -740 -224
-1007 -491 -162 -163 -252 -288 -345 -481 -66 -137 -133 -335 -145 -430 -2
-11 -5 -36 -8 -55 -29 -182 -29 -338 -2 -548 9 -69 53 -234 84 -320 141 -381
409 -703 756 -907 84 -50 276 -139 322 -150 10 -3 60 -16 111 -30 90 -24 149
-35 272 -52 52 -7 267 -9 320 -3 166 19 194 24 320 59 133 37 169 51 283 106
110 53 152 77 234 133 415 283 692 742 750 1240 17 151 8 388 -22 537 l-14 70
37 32 c20 17 93 77 161 133 133 108 161 140 187 217 44 129 12 312 -90 507
l-53 102 20 39 c32 63 34 68 46 127 12 58 9 135 -7 178 -6 15 -5 38 1 60 25
91 -12 228 -86 315 -18 22 -45 61 -61 88 -15 26 -44 65 -64 86 -42 46 -139
111 -163 111 -9 0 -45 19 -80 42 -62 40 -173 86 -234 95 -16 3 -56 6 -88 7
l-58 1 6 30 c17 74 15 232 -3 301 -49 184 -162 317 -292 341 -30 5 -28 3 -34
37 -15 85 -107 135 -185 101z"/>
</g>
</svg>
